# xmcd CD database file
#
# Track frame offsets:
#	150
#	13682
#	33735
#	47735
#	63296
#	88645
#	102784
#	116342
#	135862
#	152084
#	165579
#	176929
#	187823
#	207493
#	224844
#	244429
#	264619
#	281156
#	295581
#
# Disc length: 4165 seconds
#
# Revision: 0
# Processed by: cddbd v1.5.1PL0 Copyright (c) Steve Scherf et al.
# Submitted via: CDex 1.51
#
DISCID=1a104313
DTITLE=Matchbox Bluesband - From Roots To Rock Live
DYEAR=1997
DGENRE=Blues
TTITLE0=Ain't Got You
TTITLE1=Boogie woogie Country Girl
TTITLE2=Hadacol Bounce
TTITLE3=I Know How To Do It
TTITLE4=Blow Top Blues
TTITLE5=It's Been a Long Time
TTITLE6=Jivin' The Blues
TTITLE7=32-30 Blues
TTITLE8=Early Morning Blues
TTITLE9=Papa's On The House Top
TTITLE10=Wild Women Don't Have The Blues
TTITLE11=Shave'em Dry
TTITLE12=Roll'em Pete
TTITLE13=300 Pounds Of Joy
TTITLE14=Ain't Nobody's Buisness
TTITLE15=Big Town Playboy
TTITLE16=As Long As I'm Moving
TTITLE17=You're On The Right Track
TTITLE18=You Don't Move Me No More
EXTD=YEAR: 1997
EXTT0=
EXTT1=
EXTT2=
EXTT3=
EXTT4=
EXTT5=
EXTT6=
EXTT7=
EXTT8=
EXTT9=
EXTT10=
EXTT11=
EXTT12=
EXTT13=
EXTT14=
EXTT15=
EXTT16=
EXTT17=
EXTT18=
PLAYORDER=
